<svg xmlns="http://www.w3.org/2000/svg" viewBox="0 0 512 512" id="avatar">
  <g>
    <path fill="#f39c12" d="m74.542 218.009-43.46 139.8s35.305-44.2 36.444-36.336S82.331 386.3 82.331 386.3l56.944-47.475 4.555 73.289 68.4-90.638-107.878-103.467zm362.916 0 43.46 139.8s-35.305-44.2-36.444-36.336-14.805 64.827-14.805 64.827l-56.943-47.475-4.556 73.289-68.4-90.639 107.878-103.466z"></path>
    <path fill="#f4dcc6" d="M194.966 156.646h122.069a80.669 80.669 0 0 1 80.665 80.669v61.035A141.7 141.7 0 0 1 256 440.053a141.7 141.7 0 0 1-141.7-141.7v-61.038a80.669 80.669 0 0 1 80.666-80.669Z"></path>
    <path fill="#c99673" d="M317.035 156.646H194.966a80.668 80.668 0 0 0-80.666 80.668v2.093h283.4v-2.093a80.668 80.668 0 0 0-80.665-80.668zM256 429.744a141.7 141.7 0 0 1-141.7-141.7v10.308A141.7 141.7 0 0 0 256 440.053a141.7 141.7 0 0 0 141.7-141.7v-10.312A141.7 141.7 0 0 1 256 429.744z"></path>
    <path fill="#ecf0f1" d="M153.214 311.333a36.042 36.042 0 0 1 55.4 0 45.967 45.967 0 1 0-55.4 0Z"></path>
    <path fill="#bdc3c7" d="M180.915 228.745a45.967 45.967 0 0 0-45.967 45.967h91.934a45.967 45.967 0 0 0-45.967-45.967Z"></path>
    <path fill="#414141" d="M162.653 303.353a35.824 35.824 0 0 1 36.523 0c7.9-6.408 13.057-16.835 13.057-28.641 0-19.5-14.022-35.3-31.318-35.3s-31.319 15.807-31.319 35.3c.004 11.806 5.161 22.233 13.057 28.641Z"></path>
    <ellipse cx="180.915" cy="274.712" fill="#313131" rx="15.785" ry="17.794"></ellipse>
    <path fill="#bdc3c7" d="M331.086 228.745a45.967 45.967 0 0 0-45.967 45.967h91.934a45.967 45.967 0 0 0-45.967-45.967Z"></path>
    <path fill="#ecf0f1" d="M303.386 311.333a36.041 36.041 0 0 1 55.4 0 45.969 45.969 0 1 0-55.4 0Z"></path>
    <path fill="#bdc3c7" d="M330.9 228.745a45.967 45.967 0 0 0-45.967 45.967h91.934a45.967 45.967 0 0 0-45.967-45.967Z"></path>
    <path fill="#414141" d="M312.824 303.353a35.825 35.825 0 0 1 36.524 0c7.9-6.408 13.056-16.835 13.056-28.641 0-19.5-14.021-35.3-31.319-35.3s-31.318 15.807-31.318 35.3c0 11.806 5.16 22.233 13.057 28.641Z"></path>
    <ellipse cx="331.086" cy="274.712" fill="#313131" rx="15.785" ry="17.794"></ellipse>
    <circle cx="160.526" cy="274.712" r="10.25" fill="#ecf0f1"></circle>
    <circle cx="310.697" cy="274.712" r="10.25" fill="#ecf0f1"></circle>
    <path fill="#c99673" d="m260.9 338.826 15.817-17.974a6.524 6.524 0 0 0-4.9-10.833h-31.63a6.523 6.523 0 0 0-4.9 10.833l15.816 17.974a6.523 6.523 0 0 0 9.797 0Z"></path>
    <ellipse cx="314.761" cy="200.29" fill="#f39c12" rx="31.579" ry="10.629" transform="rotate(-11.107 314.772 200.294)"></ellipse>
    <ellipse cx="196.7" cy="200.29" fill="#f39c12" rx="10.629" ry="31.579" transform="rotate(-78.893 196.698 200.29)"></ellipse>
    <path fill="#f1c40f" d="M256 36.548A181.461 181.461 0 0 0 74.542 218.009v80.34l29.81-80.34v80.34l44.424-80.34 29.509-46.97 12.368 16.648h-.336L213.179 218l60.579 80.34.825-5.92a307.708 307.708 0 0 1 53.869-135.687L366.33 218l44.425 80.34V218l26.7 80.34V218A181.461 181.461 0 0 0 256 36.548Z"></path>
    <path fill="#ffeda1" d="m360.93 209.27 24.153-24.151 25.817 25.816 23.882-23.881a180.278 180.278 0 0 0-23.125-62.334l-.757-.757-25.816 25.815-25.816-25.815-25.815 25.815-25.817-25.815-25.816 25.815L256 123.963l-25.816 25.815-25.815-25.815-25.817 25.815-25.812-25.815-25.815 25.815-25.817-25.815-.758.758a180.284 180.284 0 0 0-23.124 62.333l23.882 23.881 25.817-25.816 25.815 25.816 1.293-1.293 24.252-38.6 12.368 16.648h-.336l16.037 21.267 23.834-23.835L256 210.935l25.816-25.816 19 19a307.7 307.7 0 0 1 27.636-47.375Z"></path>
    <path d="M180.915 233.158a41.6 41.6 0 0 1 41.554 41.553 4.413 4.413 0 1 0 8.826 0 50.38 50.38 0 0 0-100.76 0 4.413 4.413 0 1 0 8.826 0 41.6 41.6 0 0 1 41.554-41.553zm135.053 96.492a4.413 4.413 0 0 0-4.413 4.413 55.555 55.555 0 0 1-111.11 0 4.413 4.413 0 1 0-8.826 0 64.381 64.381 0 1 0 128.762 0 4.413 4.413 0 0 0-4.413-4.413z"></path>
    <path d="m485.1 356.328-43.242-139.093c-.419-102.459-83.894-185.687-186.45-185.687S69.385 114.766 68.956 217.217L25.712 356.329a5 5 0 0 0 8.681 4.6C44.408 348.4 56.6 334.4 63.169 328.334c3.527 16.688 13.225 57.137 13.7 59.133a5 5 0 0 0 8.064 2.675l37.026-30.87a146.787 146.787 0 0 0 14.524 24.883l1.757 28.27a5 5 0 0 0 8.981 2.7l7.606-10.079a146.426 146.426 0 0 0 201.147 0l7.605 10.078a5 5 0 0 0 8.981-2.7l1.758-28.269a146.824 146.824 0 0 0 14.524-24.884l37.025 30.869a5 5 0 0 0 8.064-2.674c.479-2 10.178-42.445 13.7-59.134 6.567 6.067 18.762 20.062 28.776 32.6a5 5 0 0 0 8.682-4.6ZM78.946 218.008c0-97.3 79.161-176.46 176.462-176.46s176.46 79.16 176.46 176.46v49.448l-16.961-51.025a5 5 0 0 0-9.745 1.577v60.966l-35.049-63.386c-.039-.07-.08-.14-.123-.209l-37.878-61.266a5 5 0 0 0-8.329-.266 314.124 314.124 0 0 0-53.852 131.908l-75.123-99.627a4.992 4.992 0 0 0-.737-1.422L181.7 168.057a5 5 0 0 0-8.247.321l-29.508 46.97c-.05.079-.1.159-.142.24l-35.049 63.386v-60.966a5 5 0 0 0-9.687-1.739L78.946 270.5Zm261.019-22.783c-1.639 2.335-9.665 7.635-24.716 10.589a82.6 82.6 0 0 1-10.939 1.436q2.78-5.987 5.816-11.848a89.303 89.303 0 0 1 2.954-.636c15.05-2.954 24.483-1.083 26.885.459ZM316.3 184.087q5.336-9.3 11.326-18.214l11.406 18.447c-6.245-1.5-14.418-1.42-22.732-.233Zm-128.493 9.366 9.652 12.8c-.8-.134-1.606-.275-2.44-.439-15.051-2.954-23.076-8.254-24.716-10.589 1.853-1.19 7.919-2.562 17.504-1.772Zm-12.066-9.915 2.293-3.65 2.47 3.325a53.436 53.436 0 0 0-4.763.325ZM84.724 377.3c-4.917-20.644-12.076-51.226-12.846-56.539a5.931 5.931 0 0 0-4.284-5.011c-3.694-1-7.422-.177-24.831 19.638l-.107.122 26.29-84.573v47.413a5 5 0 0 0 9.688 1.739l20.122-54.231v52.492a5 5 0 0 0 9.376 2.42l.586-1.061a145.939 145.939 0 0 0 9.228 49.894Zm62.662 21.014-.054-.865c.129.141.261.279.39.419Zm216.036 0-.336-.445c.13-.14.261-.278.39-.419Zm28.686-99.964c0 75.379-61.325 136.7-136.7 136.7-75.378 0-136.7-61.325-136.7-136.7v-16.696l33.788-61.1 11.173-17.785a28.963 28.963 0 0 0 6.6 4.943c5.925 3.38 14.032 6.193 22.827 7.92a93.247 93.247 0 0 0 12.653 1.617l63.427 84.116a5 5 0 0 0 8.945-2.321l.824-5.919q1.105-7.932 2.641-15.791a4.4 4.4 0 0 0 7.949-2.618 41.554 41.554 0 0 1 83.108 0 4.413 4.413 0 1 0 8.826 0 50.365 50.365 0 0 0-92.257-27.972 305.435 305.435 0 0 1 10.631-29.38c.17 0 .334.009.505.009a88.712 88.712 0 0 0 16.83-1.741c8.8-1.727 16.9-4.54 22.827-7.92 4.636-2.646 7.292-5.276 8.732-7.695l12.687 20.521 30.687 55.5Zm75.937 37.037c-17.411-19.818-21.137-20.645-24.83-19.638a5.932 5.932 0 0 0-4.285 5.011c-.77 5.314-7.929 35.9-12.846 56.539l-33.221-27.7a145.975 145.975 0 0 0 9.245-51.253v-4.233l3.679 6.653a5 5 0 0 0 9.375-2.42V248.9l16.961 51.024a5 5 0 0 0 9.745-1.577v-47.4l26.285 84.556Z"></path>
    <path d="M199.094 308.353a5 5 0 0 0 3.151-1.117c9.334-7.574 14.907-19.733 14.907-32.524 0-22.223-16.293-40.3-36.319-40.3s-36.318 18.081-36.318 40.3c0 12.791 5.573 24.95 14.907 32.524a5 5 0 0 0 5.689.425 30.82 30.82 0 0 1 31.445 0 5 5 0 0 0 2.538.692zm-35.753-11.06a32.493 32.493 0 0 1-8.826-22.581c0-16.71 11.806-30.3 26.318-30.3s26.319 13.594 26.319 30.3a32.493 32.493 0 0 1-8.826 22.581 40.764 40.764 0 0 0-34.985 0zM331 234.408c-20.026 0-36.318 18.081-36.318 40.3 0 12.79 5.572 24.949 14.906 32.524a5 5 0 0 0 5.689.425 30.823 30.823 0 0 1 31.447 0 5 5 0 0 0 5.69-.426c9.333-7.574 14.9-19.733 14.9-32.523.009-22.219-16.284-40.3-36.314-40.3zm17.5 62.885a40.764 40.764 0 0 0-34.985 0 32.493 32.493 0 0 1-8.826-22.581c0-16.71 11.806-30.3 26.318-30.3s26.319 13.594 26.319 30.3a32.5 32.5 0 0 1-8.826 22.581z"></path>
  </g>
</svg>
